<svg enable-background="new 0 0 135.7 117" viewBox="0 0 135.7 117" xmlns="http://www.w3.org/2000/svg"><g fill="#f0f3f5"><circle cx="80.7" cy="80.2" r="35.4"/><circle cx="83.4" cy="7.4" r="7.1"/><circle cx="22" cy="21.3" r="21.3"/></g><path d="m11.5 24.5h80v61.4h-80z" fill="#1de9b6"/><g stroke="#465058" stroke-miterlimit="10"><g stroke-width="1.5"><g fill="none"><path d="m91.5 54.1v-29.6h-80v61.4h39.7"/><path d="m70.4 42.5 11-11.1"/><path d="m58 40.5 7.4 2.7"/><path d="m45 48.8 8.1-7.5"/><path d="m36.1 45.1 4.4 3.1"/><path d="m25.9 53 5.5-6.7"/><path d="m76.2 31.4h5.2v5.3"/></g><circle cx="33.4" cy="44.2" fill="#fff" r="2.9"/><circle cx="24.2" cy="55.4" fill="#fff" r="2.9"/><circle cx="55.4" cy="39.5" fill="#fff" r="2.9"/><circle cx="42.5" cy="50.3" fill="#fff" r="2.9"/><circle cx="68.3" cy="44.2" fill="#fff" r="2.9"/><path d="m123.5 58h-67.7v9.7c4.4 3.1 4.4 9.7 0 12.9v9.7h67.6v-9.7c-4.4-3.2-4.4-9.7 0-12.9v-9.7z" fill="#fff"/><path d="m77.9 65.5 2.8 5.7 6.3.9-4.6 4.5 1.1 6.3-5.6-3-5.7 3 1.1-6.3-4.5-4.5 6.3-.9z" fill="#0cf"/><g fill="none"><path d="m104.3 61.2v7"/><path d="m104.3 70.7v7"/><path d="m104.3 80.2v7"/><path d="m20 79.3h6.6"/><path d="m28.9 79.3h6.6"/><path d="m37.8 79.3h6.7"/><path d="m20 74.1h24.5"/></g></g><g fill="none" stroke-dasharray="2" stroke-width="2"><path d="m6.4 43.3v51.1"/><path d="m132.3 47.7h-27.3"/><path d="m122 52.9h-26.9"/></g></g></svg>